<svg width="24" height="24" viewBox="0 0 24 24" fill="none" xmlns="http://www.w3.org/2000/svg">
<path fill-rule="evenodd" clip-rule="evenodd" d="M24 12C24 18.629 18.629 24 12 24C5.371 24 0 18.629 0 12C0 5.371 5.371 0 12 0C18.629 0 24 5.371 24 12ZM17.061 7.279L5.491 11.74C4.698 12.05 4.712 12.489 5.355 12.693L8.317 13.617L15.188 9.291C15.507 9.079 15.803 9.199 15.561 9.412L10.001 14.435L9.788 17.488C10.098 17.488 10.233 17.353 10.393 17.193L11.84 15.799L14.84 18.01C15.387 18.32 15.778 18.16 15.924 17.502L17.894 8.221L17.893 8.222C18.067 7.41 17.598 7.085 17.061 7.279Z" fill="white"/>
</svg>
