<svg width="192" height="256" viewBox="0 0 192 256" fill="none" xmlns="http://www.w3.org/2000/svg">
<path id="bluezilla" d="M154.734 123.362C173.908 111.556 183.465 93.9068 183.465 70.3548C183.465 49.3327 175.951 32.3464 160.985 19.3958C146.018 6.44518 126.303 0 101.96 0H0.0180546V32.1054C0.0180546 43.0682 1.58084 52.9468 12.2198 55.5972C14.0831 56.0791 15.8863 56.2598 17.389 56.1995C26.3449 55.5972 84.2281 39.5144 100.156 38.6108C103.883 38.4301 107.429 40.5384 108.932 43.9718C110.555 47.5256 113.019 51.9228 115.904 52.8866C120.893 54.5732 145.898 51.7421 148.903 62.5845C151.788 73.1256 147.461 85.1125 141.871 88.1845L136.521 97.5209L131.232 91.4372C131.051 91.4372 130.931 91.4372 130.751 91.4974L125.762 100.171L120.473 94.0875C120.172 94.0875 120.112 94.1478 119.811 94.1478L114.702 103.123L109.293 96.9186C109.112 96.9186 109.052 96.9186 108.872 96.9788L98.4734 100.232C94.1457 101.737 91.2005 103.183 91.0201 104.388C90.8398 105.472 92.8233 108.002 96.009 111.194L103.583 118.362C103.703 118.543 103.763 118.603 103.883 118.784L113.861 118.242L111.697 125.711C111.937 126.012 112.058 126.133 112.298 126.434L122.336 125.892L120.172 133.361C120.412 133.662 120.533 133.843 120.773 134.144L130.871 133.602L128.527 141.854C129.248 142.758 129.669 143.48 129.729 143.962C130.691 149.263 126.604 156.491 112.599 155.287C98.5936 154.082 101.058 143.42 69.9226 152.817C40.8909 161.611 22.3779 174.261 10.0559 199.921C-0.883552 222.509 0.0180546 256 0.0180546 256C0.0180546 256 63.0704 256 78.1572 256H108.091C134.177 256 154.674 252.085 169.58 239.014C184.487 225.943 192 207.872 192 184.621C192 156.853 179.558 136.433 154.734 123.362Z" fill="white"/>
</svg>
